<?xml version="1.0" encoding="utf-8"?>
<!-- Generator: Adobe Illustrator 25.0.0, SVG Export Plug-In . SVG Version: 6.00 Build 0)  -->
<svg version="1.1" id="Livello_2_1_" xmlns="http://www.w3.org/2000/svg" xmlns:xlink="http://www.w3.org/1999/xlink" x="0px"
	 y="0px" viewBox="0 0 500 500" style="enable-background:new 0 0 500 500;" xml:space="preserve">
<style type="text/css">
	.st0{fill:none;stroke:#B900FF;stroke-width:7;stroke-miterlimit:10;}
	.st1{fill:none;stroke:#29ABE2;stroke-width:7;stroke-miterlimit:10;}
</style>
<path class="st0" d="M52.5,188.5c-6.3,18.3-12.7,36.7-19,55"/>
<g>
	<path class="st1" d="M62.4,433c2,0.5,3-2.4,7-3c4.1-0.6,6.1,2.1,11,4c3.4,1.3,7.6,1.2,16,1c8-0.2,12-0.3,17-2
		c2.8-0.9,11.5-3.9,12-9c0.3-2.7-2-4.4-1-6s3.9-1.3,8-1c8.7,0.7,13.1,1,14,1c4.2-0.1,8.4-1.4,17-4c6.5-2,7.9-2.9,8-4
		c0.1-0.5-0.1-1.6-7-6c-6.2-3.9-6.8-3.5-8-5c-1-1.3-2.6-4.1,0-16c2.3-10.4,3.9-10.1,5-17c1.8-10.8-1.5-15.1,2-19
		c2.6-2.9,6.5-2.6,13-3c0,0,3.1-0.2,27-4c24.9-4,32.7-16.5,39-12c4.8,3.4,0.4,10.8,3,32c1.3,10.7,2.5,9.2,6,27
		c4.8,24.2,3.1,29.8,9,35c3.1,2.7,9.4,3.8,22,6c12.2,2.1,20.3,3.4,25-1c1.3-1.2,2.9-3.4,7-7c2.5-2.2,3.7-3.3,5-4
		c3.9-2.1,5.9-0.8,13-2c5.1-0.8,8.2-1.4,10-4c2-2.9,1.1-6.5,1-7c-1.3-5.3-6.4-6-10-10c-4.5-5-2.7-10.4-3-26c-0.3-18.6-2.9-16.3-2-27
		s3.2-10.2,7-30c2.1-11.2,1.7-13,4-18c2.7-6,6.5-10.3,15-18c12.6-11.3,23.3-18.8,25-20c17.5-12.1,26.4-18.3,40-25
		c24.9-12.2,37.3-18.3,40-19c2.9-0.7,11.6-2.8,14-9c1.2-3.2-0.4-4.3,1-8c2.2-6.1,7.3-5.6,10-12c0.3-0.6,1.8-4.4,1-9
		c-0.9-5.2-4.4-8.6-6-10c-7.4-6.8-15.3-5.6-38-10c-9.7-1.9-9.4-2.3-19-4c-10.9-1.9-18.1-3.2-26-3c-9.4,0.2-14.5,2.5-26,6
		c-30.6,9.4-45.9,14.1-59,11c-9.4-2.2-15.4-6.6-28-6c-4.9,0.2-8.6,1.1-16,3c-7.6,1.9-11.2,3.4-30,10c-15,5.3-16.3,5.6-18,6
		c-6.3,1.3-13.2,1.9-26,1c-13-0.9-16.8-2.4-39-6c-23.5-3.8-28.3-3.6-33-3c-11.3,1.6-19.6,5.7-24,8c-12.3,6.3-20.1,14.1-25,19
		c-4.8,4.9-3.5,4.4-12,14c-13.8,15.6-16.6,16.1-21,24c-2.9,5.3-7.9,14.3-5,23c2,6.1,5.7,5.3,9,12c4.9,9.9-1.8,15.3,1,28
		c2.4,11.2,8.4,10.8,12,23c1.7,6,1,8.4,0,26c-1,17.9-1.6,28.2-1,41c0.7,15,2.1,11.2,3,28C58.9,422.1,58.9,432.1,62.4,433z"/>
	<path class="st1" d="M165.4,263c0.7,7.8-0.8,13.6-2,17c-2.1,6.1-5.3,10.2-9,15c-2.8,3.7-4,4.6-10,11c-7.9,8.5-11.9,12.7-15,17
		c-1,1.4-6.2,8.7-10,19c-4.3,11.7-1.4,12.9-5,37c-1.9,13.1-3.5,17.8-1,25c2.2,6.1,6,10.3,9,13"/>
	<path class="st1" d="M98.4,414c3-0.2,6.3-0.2,10,0c3.3,0.2,6.3,0.5,9,1"/>
	<path class="st1" d="M125.4,348c5.7,1,11.3,2,17,3"/>
	<path class="st1" d="M142.4,351c4.3,0,8.7,0,13,0c2,0,4,0,6,0"/>
	<path class="st1" d="M251.4,284c-0.1,6.1-0.6,11.2-1,15c-0.5,4.1-1,7.2-2,13c-0.7,4-1.7,9.5-3,16"/>
	<path class="st1" d="M246.4,322"/>
	<path class="st1" d="M316.4,413c-1.3-0.9-3.4-2.4-6-4c-5.9-3.7-6.8-3.6-8-5c-3-3.3-1.2-7.2-1-17c0.3-12.6-2.6-12.7-1-20
		c1.4-6.3,3.4-5.9,7-16c1.4-4,2.3-7.7,4-15c1.4-6.1,1.9-9.1,4-18c2.2-9.5,2.9-11.7,5-14c2.5-2.7,4.4-2.8,9-6c4.7-3.2,8-6.6,10-9"/>
	<path class="st1" d="M289.4,408c4.3-0.3,8.7-0.7,13-1"/>
	<path class="st1" d="M320.4,400c1.7-0.3,3.3-0.7,5-1"/>
	<path class="st1" d="M382.4,179c-1,0.3-3.8,1.1-7,0c-3.1-1.1-6.5-3.9-7-8c-0.6-4.5,2.7-7.7,4-9c0.8-0.8,4.5-4.2,10-4
		c4.2,0.1,7,2.2,8,3"/>
	<path class="st1" d="M383.4,170c0-0.2-0.5-2.6,1-4c1.6-1.5,4.8-1.4,7,1"/>
	<path class="st1" d="M426.4,170c1.7,1.6,4.6,2.3,7,1c2.6-1.4,3.7-4.5,3-7c-1-3.7-5.9-5.8-9-4C424.1,161.8,423.6,167.3,426.4,170z"
		/>
	<path class="st1" d="M444.4,196c4.3,0.6,9.3,1.1,15,1c4.4-0.1,8.5-0.5,12-1"/>
	<path class="st1" d="M473.4,174"/>
	<path class="st1" d="M483.4,175c-1.8,0.3-9.1,1.3-10-1c-0.8-1.9,3.3-5.9,10-10"/>
</g>
<g>
	<path class="st0" d="M54.5,413.5c2,0.5,3-2.4,7-3c4.1-0.6,6.1,2.1,11,4c3.4,1.3,7.6,1.2,16,1c8-0.2,12-0.3,17-2
		c2.8-0.9,11.5-3.9,12-9c0.3-2.7-2-4.4-1-6s3.9-1.3,8-1c8.7,0.7,13.1,1,14,1c4.2-0.1,8.4-1.4,17-4c6.5-2,7.9-2.9,8-4
		c0.1-0.5-0.1-1.6-7-6c-6.2-3.9-6.8-3.5-8-5c-1-1.3-2.6-4.1,0-16c2.3-10.4,3.9-10.1,5-17c1.8-10.8-1.5-15.1,2-19
		c2.6-2.9,6.5-2.6,13-3c0,0,3.1-0.2,27-4c24.9-4,32.7-16.5,39-12c4.8,3.4,0.4,10.8,3,32c1.3,10.7,2.5,9.2,6,27
		c4.8,24.2,3.1,29.8,9,35c3.1,2.7,9.4,3.8,22,6c12.2,2.1,20.3,3.4,25-1c1.3-1.2,2.9-3.4,7-7c2.5-2.2,3.7-3.3,5-4
		c3.9-2.1,5.9-0.8,13-2c5.1-0.8,8.2-1.4,10-4c2-2.9,1.1-6.5,1-7c-1.3-5.3-6.4-6-10-10c-4.5-5-2.7-10.4-3-26c-0.3-18.6-2.9-16.3-2-27
		s3.2-10.2,7-30c2.1-11.2,1.7-13,4-18c2.7-6,6.5-10.3,15-18c12.6-11.3,23.3-18.8,25-20c17.5-12.1,26.4-18.3,40-25
		c24.9-12.2,37.3-18.3,40-19c2.9-0.7,11.6-2.8,14-9c1.2-3.2-0.4-4.3,1-8c2.2-6.1,7.3-5.6,10-12c0.3-0.6,1.8-4.4,1-9
		c-0.9-5.2-4.4-8.6-6-10c-7.4-6.8-15.3-5.6-38-10c-9.7-1.9-9.4-2.3-19-4c-10.9-1.9-18.1-3.2-26-3c-9.4,0.2-14.5,2.5-26,6
		c-30.6,9.4-45.9,14.1-59,11c-9.4-2.2-15.4-6.6-28-6c-4.9,0.2-8.6,1.1-16,3c-7.6,1.9-11.2,3.4-30,10c-15,5.3-16.3,5.6-18,6
		c-6.3,1.3-13.2,1.9-26,1c-13-0.9-16.8-2.4-39-6c-23.5-3.8-28.3-3.6-33-3c-11.3,1.6-19.6,5.7-24,8c-12.3,6.3-20.1,14.1-25,19
		c-4.8,4.9-3.5,4.4-12,14c-13.8,15.6-16.6,16.1-21,24c-2.9,5.3-7.9,14.3-5,23c2,6.1,5.7,5.3,9,12c4.9,9.9-1.8,15.3,1,28
		c2.4,11.2,8.4,10.8,12,23c1.7,6,1,8.4,0,26c-1,17.9-1.6,28.2-1,41c0.7,15,2.1,11.2,3,28C51,402.6,51,412.6,54.5,413.5z"/>
	<path class="st0" d="M157.5,243.5c0.7,7.8-0.8,13.6-2,17c-2.1,6.1-5.3,10.2-9,15c-2.8,3.7-4,4.6-10,11c-7.9,8.5-11.9,12.7-15,17
		c-1,1.4-6.2,8.7-10,19c-4.3,11.7-1.4,12.9-5,37c-1.9,13.1-3.5,17.8-1,25c2.2,6.1,6,10.3,9,13"/>
	<path class="st0" d="M90.5,394.5c3-0.2,6.3-0.2,10,0c3.3,0.2,6.3,0.5,9,1"/>
	<path class="st0" d="M117.5,328.5c5.7,1,11.3,2,17,3"/>
	<path class="st0" d="M134.5,331.5c4.3,0,8.7,0,13,0c2,0,4,0,6,0"/>
	<path class="st0" d="M243.5,264.5c-0.1,6.1-0.6,11.2-1,15c-0.5,4.1-1,7.2-2,13c-0.7,4-1.7,9.5-3,16"/>
	<path class="st0" d="M238.5,302.5"/>
	<path class="st0" d="M308.5,393.5c-1.3-0.9-3.4-2.4-6-4c-5.9-3.7-6.8-3.6-8-5c-3-3.3-1.2-7.2-1-17c0.3-12.6-2.6-12.7-1-20
		c1.4-6.3,3.4-5.9,7-16c1.4-4,2.3-7.7,4-15c1.4-6.1,1.9-9.1,4-18c2.2-9.5,2.9-11.7,5-14c2.5-2.7,4.4-2.8,9-6c4.7-3.2,8-6.6,10-9"/>
	<path class="st0" d="M281.5,388.5c4.3-0.3,8.7-0.7,13-1"/>
	<path class="st0" d="M312.5,380.5c1.7-0.3,3.3-0.7,5-1"/>
	<path class="st0" d="M374.5,159.5c-1,0.3-3.8,1.1-7,0c-3.1-1.1-6.5-3.9-7-8c-0.6-4.5,2.7-7.7,4-9c0.8-0.8,4.5-4.2,10-4
		c4.2,0.1,7,2.2,8,3"/>
	<path class="st0" d="M375.5,150.5c0-0.2-0.5-2.6,1-4c1.6-1.5,4.8-1.4,7,1"/>
	<path class="st0" d="M418.5,150.5c1.7,1.6,4.6,2.3,7,1c2.6-1.4,3.7-4.5,3-7c-1-3.7-5.9-5.8-9-4
		C416.2,142.4,415.7,147.8,418.5,150.5z"/>
	<path class="st0" d="M436.5,176.5c4.3,0.6,9.3,1.1,15,1c4.4-0.1,8.5-0.5,12-1"/>
	<path class="st0" d="M465.5,154.5"/>
	<path class="st0" d="M475.5,155.5c-1.8,0.3-9.1,1.3-10-1c-0.8-1.9,3.3-5.9,10-10"/>
</g>
</svg>
